<svg xmlns="http://www.w3.org/2000/svg" width="512" height="512" viewBox="0 0 100 100" shape-rendering="crispEdges"><rect x="0.400" y="0.400" width="9.200" height="9.200" fill="#0b0b0d"/><rect x="10.400" y="0.400" width="9.200" height="9.200" fill="#0b0b0d"/><rect x="20.400" y="0.400" width="9.200" height="9.200" fill="#0b0b0d"/><rect x="30.400" y="0.400" width="9.200" height="9.200" fill="#0b0b0d"/><rect x="40.400" y="0.400" width="9.200" height="9.200" fill="#0b0b0d"/><rect x="50.400" y="0.400" width="9.200" height="9.200" fill="#0b0b0d"/><rect x="60.400" y="0.400" width="9.200" height="9.200" fill="#0b0b0d"/><rect x="0.400" y="10.400" width="9.200" height="9.200" fill="#0b0b0d"/><rect x="10.400" y="10.400" width="9.200" height="9.200" fill="#0b0b0d"/><rect x="20.400" y="10.400" width="9.200" height="9.200" fill="#0b0b0d"/><rect x="30.400" y="10.400" width="9.200" height="9.200" fill="#0b0b0d"/><rect x="40.400" y="10.400" width="9.200" height="9.200" fill="#0b0b0d"/><rect x="50.400" y="10.400" width="9.200" height="9.200" fill="#0b0b0d"/><rect x="60.400" y="10.400" width="9.200" height="9.200" fill="#0b0b0d"/><rect x="0.400" y="20.400" width="9.200" height="9.200" fill="#0b0b0d"/><rect x="10.400" y="20.400" width="9.200" height="9.200" fill="#0b0b0d"/><rect x="20.400" y="20.400" width="9.200" height="9.200" fill="#0b0b0d"/><rect x="30.400" y="20.400" width="9.200" height="9.200" fill="#0b0b0d"/><rect x="40.400" y="20.400" width="9.200" height="9.200" fill="#0b0b0d"/><rect x="50.400" y="20.400" width="9.200" height="9.200" fill="#0b0b0d"/><rect x="0.400" y="30.400" width="9.200" height="9.200" fill="#0b0b0d"/><rect x="10.400" y="30.400" width="9.200" height="9.200" fill="#0b0b0d"/><rect x="20.400" y="30.400" width="9.200" height="9.200" fill="#0b0b0d"/><rect x="30.400" y="30.400" width="9.200" height="9.200" fill="#0b0b0d"/><rect x="40.400" y="30.400" width="9.200" height="9.200" fill="#0b0b0d"/><rect x="50.400" y="30.400" width="9.200" height="9.200" fill="#0b0b0d"/><rect x="60.400" y="30.400" width="9.200" height="9.200" fill="#0b0b0d"/><rect x="0.400" y="40.400" width="9.200" height="9.200" fill="#0b0b0d"/><rect x="10.400" y="40.400" width="9.200" height="9.200" fill="#0b0b0d"/><rect x="20.400" y="40.400" width="9.200" height="9.200" fill="#0b0b0d"/><rect x="30.400" y="40.400" width="9.200" height="9.200" fill="#0b0b0d"/><rect x="40.400" y="40.400" width="9.200" height="9.200" fill="#0b0b0d"/><rect x="50.400" y="40.400" width="9.200" height="9.200" fill="#0b0b0d"/><rect x="80.400" y="40.400" width="9.200" height="9.200" fill="#0b0b0d"/><rect x="0.400" y="50.400" width="9.200" height="9.200" fill="#0b0b0d"/><rect x="10.400" y="50.400" width="9.200" height="9.200" fill="#0b0b0d"/><rect x="20.400" y="50.400" width="9.200" height="9.200" fill="#0b0b0d"/><rect x="30.400" y="50.400" width="9.200" height="9.200" fill="#0b0b0d"/><rect x="40.400" y="50.400" width="9.200" height="9.200" fill="#0b0b0d"/><rect x="50.400" y="50.400" width="9.200" height="9.200" fill="#0b0b0d"/><rect x="60.400" y="50.400" width="9.200" height="9.200" fill="#0b0b0d"/><rect x="70.400" y="50.400" width="9.200" height="9.200" fill="#0b0b0d"/><rect x="0.400" y="60.400" width="9.200" height="9.200" fill="#0b0b0d"/><rect x="10.400" y="60.400" width="9.200" height="9.200" fill="#0b0b0d"/><rect x="20.400" y="60.400" width="9.200" height="9.200" fill="#0b0b0d"/><rect x="30.400" y="60.400" width="9.200" height="9.200" fill="#0b0b0d"/><rect x="40.400" y="60.400" width="9.200" height="9.200" fill="#0b0b0d"/><rect x="50.400" y="60.400" width="9.200" height="9.200" fill="#0b0b0d"/><rect x="70.400" y="60.400" width="9.200" height="9.200" fill="#0b0b0d"/><rect x="0.400" y="70.400" width="9.200" height="9.200" fill="#0b0b0d"/><rect x="10.400" y="70.400" width="9.200" height="9.200" fill="#0b0b0d"/><rect x="20.400" y="70.400" width="9.200" height="9.200" fill="#0b0b0d"/><rect x="30.400" y="70.400" width="9.200" height="9.200" fill="#0b0b0d"/><rect x="40.400" y="70.400" width="9.200" height="9.200" fill="#0b0b0d"/><rect x="50.400" y="70.400" width="9.200" height="9.200" fill="#0b0b0d"/><rect x="60.400" y="70.400" width="9.200" height="9.200" fill="#0b0b0d"/><rect x="70.400" y="70.400" width="9.200" height="9.200" fill="#0b0b0d"/><rect x="80.400" y="70.400" width="9.200" height="9.200" fill="#0b0b0d"/><rect x="0.400" y="80.400" width="9.200" height="9.200" fill="#0b0b0d"/><rect x="10.400" y="80.400" width="9.200" height="9.200" fill="#0b0b0d"/><rect x="20.400" y="80.400" width="9.200" height="9.200" fill="#0b0b0d"/><rect x="30.400" y="80.400" width="9.200" height="9.200" fill="#0b0b0d"/><rect x="40.400" y="80.400" width="9.200" height="9.200" fill="#0b0b0d"/><rect x="60.400" y="80.400" width="9.200" height="9.200" fill="#0b0b0d"/><rect x="0.400" y="90.400" width="9.200" height="9.200" fill="#0b0b0d"/><rect x="10.400" y="90.400" width="9.200" height="9.200" fill="#0b0b0d"/><rect x="20.400" y="90.400" width="9.200" height="9.200" fill="#0b0b0d"/><rect x="30.400" y="90.400" width="9.200" height="9.200" fill="#0b0b0d"/><rect x="40.400" y="90.400" width="9.200" height="9.200" fill="#0b0b0d"/><rect x="50.400" y="90.400" width="9.200" height="9.200" fill="#0b0b0d"/><rect x="60.400" y="90.400" width="9.200" height="9.200" fill="#0b0b0d"/><rect x="70.400" y="90.400" width="9.200" height="9.200" fill="#0b0b0d"/></svg>