<svg xmlns="http://www.w3.org/2000/svg" width="512" height="512" viewBox="0 0 100 100" shape-rendering="crispEdges"><rect x="0" y="0" width="10" height="10" fill="#0b0b0d"/><rect x="10" y="0" width="10" height="10" fill="#0b0b0d"/><rect x="20" y="0" width="10" height="10" fill="#0b0b0d"/><rect x="30" y="0" width="10" height="10" fill="#0b0b0d"/><rect x="40" y="0" width="10" height="10" fill="#0b0b0d"/><rect x="50" y="0" width="10" height="10" fill="#0b0b0d"/><rect x="60" y="0" width="10" height="10" fill="#0b0b0d"/><rect x="0" y="10" width="10" height="10" fill="#0b0b0d"/><rect x="10" y="10" width="10" height="10" fill="#0b0b0d"/><rect x="20" y="10" width="10" height="10" fill="#0b0b0d"/><rect x="30" y="10" width="10" height="10" fill="#0b0b0d"/><rect x="40" y="10" width="10" height="10" fill="#0b0b0d"/><rect x="50" y="10" width="10" height="10" fill="#0b0b0d"/><rect x="60" y="10" width="10" height="10" fill="#0b0b0d"/><rect x="0" y="20" width="10" height="10" fill="#0b0b0d"/><rect x="10" y="20" width="10" height="10" fill="#0b0b0d"/><rect x="20" y="20" width="10" height="10" fill="#0b0b0d"/><rect x="30" y="20" width="10" height="10" fill="#0b0b0d"/><rect x="40" y="20" width="10" height="10" fill="#0b0b0d"/><rect x="50" y="20" width="10" height="10" fill="#0b0b0d"/><rect x="0" y="30" width="10" height="10" fill="#0b0b0d"/><rect x="10" y="30" width="10" height="10" fill="#0b0b0d"/><rect x="20" y="30" width="10" height="10" fill="#0b0b0d"/><rect x="30" y="30" width="10" height="10" fill="#0b0b0d"/><rect x="40" y="30" width="10" height="10" fill="#0b0b0d"/><rect x="50" y="30" width="10" height="10" fill="#0b0b0d"/><rect x="60" y="30" width="10" height="10" fill="#0b0b0d"/><rect x="0" y="40" width="10" height="10" fill="#0b0b0d"/><rect x="10" y="40" width="10" height="10" fill="#0b0b0d"/><rect x="20" y="40" width="10" height="10" fill="#0b0b0d"/><rect x="30" y="40" width="10" height="10" fill="#0b0b0d"/><rect x="40" y="40" width="10" height="10" fill="#0b0b0d"/><rect x="50" y="40" width="10" height="10" fill="#0b0b0d"/><rect x="0" y="50" width="10" height="10" fill="#0b0b0d"/><rect x="10" y="50" width="10" height="10" fill="#0b0b0d"/><rect x="20" y="50" width="10" height="10" fill="#0b0b0d"/><rect x="30" y="50" width="10" height="10" fill="#0b0b0d"/><rect x="40" y="50" width="10" height="10" fill="#0b0b0d"/><rect x="50" y="50" width="10" height="10" fill="#0b0b0d"/><rect x="60" y="50" width="10" height="10" fill="#0b0b0d"/><rect x="70" y="50" width="10" height="10" fill="#0b0b0d"/><rect x="0" y="60" width="10" height="10" fill="#0b0b0d"/><rect x="10" y="60" width="10" height="10" fill="#0b0b0d"/><rect x="20" y="60" width="10" height="10" fill="#0b0b0d"/><rect x="30" y="60" width="10" height="10" fill="#0b0b0d"/><rect x="40" y="60" width="10" height="10" fill="#0b0b0d"/><rect x="50" y="60" width="10" height="10" fill="#0b0b0d"/><rect x="0" y="70" width="10" height="10" fill="#0b0b0d"/><rect x="10" y="70" width="10" height="10" fill="#0b0b0d"/><rect x="20" y="70" width="10" height="10" fill="#0b0b0d"/><rect x="30" y="70" width="10" height="10" fill="#0b0b0d"/><rect x="40" y="70" width="10" height="10" fill="#0b0b0d"/><rect x="50" y="70" width="10" height="10" fill="#0b0b0d"/><rect x="60" y="70" width="10" height="10" fill="#0b0b0d"/><rect x="70" y="70" width="10" height="10" fill="#0b0b0d"/><rect x="80" y="70" width="10" height="10" fill="#0b0b0d"/><rect x="0" y="80" width="10" height="10" fill="#0b0b0d"/><rect x="10" y="80" width="10" height="10" fill="#0b0b0d"/><rect x="20" y="80" width="10" height="10" fill="#0b0b0d"/><rect x="30" y="80" width="10" height="10" fill="#0b0b0d"/><rect x="40" y="80" width="10" height="10" fill="#0b0b0d"/><rect x="0" y="90" width="10" height="10" fill="#0b0b0d"/><rect x="10" y="90" width="10" height="10" fill="#0b0b0d"/><rect x="20" y="90" width="10" height="10" fill="#0b0b0d"/><rect x="30" y="90" width="10" height="10" fill="#0b0b0d"/><rect x="40" y="90" width="10" height="10" fill="#0b0b0d"/><rect x="50" y="90" width="10" height="10" fill="#0b0b0d"/><rect x="60" y="90" width="10" height="10" fill="#0b0b0d"/><rect x="70" y="90" width="10" height="10" fill="#0b0b0d"/><rect x="80" y="40" width="10" height="10" fill="#0b0b0d" opacity="0"><animate attributeName="opacity" values="0;0;1;1;0" keyTimes="0;0.25;0.4;0.65;0.8" dur="2.4s" begin="0.0s" repeatCount="indefinite"/></rect><rect x="70" y="60" width="10" height="10" fill="#0b0b0d" opacity="0"><animate attributeName="opacity" values="0;0;1;1;0" keyTimes="0;0.25;0.4;0.65;0.8" dur="2.4s" begin="0.4s" repeatCount="indefinite"/></rect><rect x="60" y="80" width="10" height="10" fill="#0b0b0d" opacity="0"><animate attributeName="opacity" values="0;0;1;1;0" keyTimes="0;0.25;0.4;0.65;0.8" dur="2.4s" begin="0.8s" repeatCount="indefinite"/></rect><rect x="70" y="10" width="10" height="10" fill="#0b0b0d" opacity="0"><animate attributeName="opacity" values="0;0;1;1;0" keyTimes="0;0.25;0.4;0.65;0.8" dur="2.4s" begin="1.2s" repeatCount="indefinite"/></rect><rect x="80" y="0" width="10" height="10" fill="#0b0b0d" opacity="0"><animate attributeName="opacity" values="0;0;1;1;0" keyTimes="0;0.25;0.4;0.65;0.8" dur="2.4s" begin="1.6s" repeatCount="indefinite"/></rect><rect x="80" y="90" width="10" height="10" fill="#0b0b0d" opacity="0"><animate attributeName="opacity" values="0;0;1;1;0" keyTimes="0;0.25;0.4;0.65;0.8" dur="2.4s" begin="2.0s" repeatCount="indefinite"/></rect><rect x="90" y="50" width="10" height="10" fill="#0b0b0d" opacity="0"><animate attributeName="opacity" values="0;0;1;1;0" keyTimes="0;0.25;0.4;0.65;0.8" dur="2.4s" begin="0.6s" repeatCount="indefinite"/></rect><rect x="90" y="70" width="10" height="10" fill="#0b0b0d" opacity="0"><animate attributeName="opacity" values="0;0;1;1;0" keyTimes="0;0.25;0.4;0.65;0.8" dur="2.4s" begin="1.4s" repeatCount="indefinite"/></rect></svg>
