<svg xmlns="http://www.w3.org/2000/svg" width="1520" height="400" viewBox="0 0 760 200" shape-rendering="crispEdges"><rect x="1" y="1" width="18" height="18" fill="#efece6"/><rect x="21" y="1" width="18" height="18" fill="#efece6"/><rect x="41" y="1" width="18" height="18" fill="#efece6"/><rect x="61" y="1" width="18" height="18" fill="#efece6"/><rect x="81" y="1" width="18" height="18" fill="#efece6"/><rect x="101" y="1" width="18" height="18" fill="#efece6"/><rect x="121" y="1" width="18" height="18" fill="#efece6"/><rect x="1" y="21" width="18" height="18" fill="#efece6"/><rect x="21" y="21" width="18" height="18" fill="#efece6"/><rect x="41" y="21" width="18" height="18" fill="#efece6"/><rect x="61" y="21" width="18" height="18" fill="#efece6"/><rect x="81" y="21" width="18" height="18" fill="#efece6"/><rect x="101" y="21" width="18" height="18" fill="#efece6"/><rect x="121" y="21" width="18" height="18" fill="#efece6"/><rect x="1" y="41" width="18" height="18" fill="#efece6"/><rect x="21" y="41" width="18" height="18" fill="#efece6"/><rect x="41" y="41" width="18" height="18" fill="#efece6"/><rect x="61" y="41" width="18" height="18" fill="#efece6"/><rect x="81" y="41" width="18" height="18" fill="#efece6"/><rect x="101" y="41" width="18" height="18" fill="#efece6"/><rect x="1" y="61" width="18" height="18" fill="#efece6"/><rect x="21" y="61" width="18" height="18" fill="#efece6"/><rect x="41" y="61" width="18" height="18" fill="#efece6"/><rect x="61" y="61" width="18" height="18" fill="#efece6"/><rect x="81" y="61" width="18" height="18" fill="#efece6"/><rect x="101" y="61" width="18" height="18" fill="#efece6"/><rect x="121" y="61" width="18" height="18" fill="#efece6"/><rect x="1" y="81" width="18" height="18" fill="#efece6"/><rect x="21" y="81" width="18" height="18" fill="#efece6"/><rect x="41" y="81" width="18" height="18" fill="#efece6"/><rect x="61" y="81" width="18" height="18" fill="#efece6"/><rect x="81" y="81" width="18" height="18" fill="#efece6"/><rect x="101" y="81" width="18" height="18" fill="#efece6"/><rect x="161" y="81" width="18" height="18" fill="#efece6"/><rect x="1" y="101" width="18" height="18" fill="#efece6"/><rect x="21" y="101" width="18" height="18" fill="#efece6"/><rect x="41" y="101" width="18" height="18" fill="#efece6"/><rect x="61" y="101" width="18" height="18" fill="#efece6"/><rect x="81" y="101" width="18" height="18" fill="#efece6"/><rect x="101" y="101" width="18" height="18" fill="#efece6"/><rect x="121" y="101" width="18" height="18" fill="#efece6"/><rect x="141" y="101" width="18" height="18" fill="#efece6"/><rect x="1" y="121" width="18" height="18" fill="#efece6"/><rect x="21" y="121" width="18" height="18" fill="#efece6"/><rect x="41" y="121" width="18" height="18" fill="#efece6"/><rect x="61" y="121" width="18" height="18" fill="#efece6"/><rect x="81" y="121" width="18" height="18" fill="#efece6"/><rect x="101" y="121" width="18" height="18" fill="#efece6"/><rect x="141" y="121" width="18" height="18" fill="#efece6"/><rect x="1" y="141" width="18" height="18" fill="#efece6"/><rect x="21" y="141" width="18" height="18" fill="#efece6"/><rect x="41" y="141" width="18" height="18" fill="#efece6"/><rect x="61" y="141" width="18" height="18" fill="#efece6"/><rect x="81" y="141" width="18" height="18" fill="#efece6"/><rect x="101" y="141" width="18" height="18" fill="#efece6"/><rect x="121" y="141" width="18" height="18" fill="#efece6"/><rect x="141" y="141" width="18" height="18" fill="#efece6"/><rect x="161" y="141" width="18" height="18" fill="#efece6"/><rect x="1" y="161" width="18" height="18" fill="#efece6"/><rect x="21" y="161" width="18" height="18" fill="#efece6"/><rect x="41" y="161" width="18" height="18" fill="#efece6"/><rect x="61" y="161" width="18" height="18" fill="#efece6"/><rect x="81" y="161" width="18" height="18" fill="#efece6"/><rect x="121" y="161" width="18" height="18" fill="#efece6"/><rect x="1" y="181" width="18" height="18" fill="#efece6"/><rect x="21" y="181" width="18" height="18" fill="#efece6"/><rect x="41" y="181" width="18" height="18" fill="#efece6"/><rect x="61" y="181" width="18" height="18" fill="#efece6"/><rect x="81" y="181" width="18" height="18" fill="#efece6"/><rect x="101" y="181" width="18" height="18" fill="#efece6"/><rect x="121" y="181" width="18" height="18" fill="#efece6"/><rect x="141" y="181" width="18" height="18" fill="#efece6"/><g shape-rendering="auto"><text x="240" y="100" dominant-baseline="central" text-anchor="start" font-family="'JetBrains Mono','IBM Plex Mono',ui-monospace,Menlo,Consolas,monospace" font-weight="600" font-size="100" letter-spacing="-2" fill="#efece6">noisebox</text></g></svg>
