<svg xmlns="http://www.w3.org/2000/svg" width="512" height="512" viewBox="0 0 200 200" shape-rendering="crispEdges"><rect x="1" y="1" width="18" height="18" fill="#efece6"/><rect x="21" y="1" width="18" height="18" fill="#efece6"/><rect x="41" y="1" width="18" height="18" fill="#efece6"/><rect x="61" y="1" width="18" height="18" fill="#efece6"/><rect x="81" y="1" width="18" height="18" fill="#efece6"/><rect x="101" y="1" width="18" height="18" fill="#efece6"/><rect x="121" y="1" width="18" height="18" fill="#efece6"/><rect x="1" y="21" width="18" height="18" fill="#efece6"/><rect x="21" y="21" width="18" height="18" fill="#efece6"/><rect x="41" y="21" width="18" height="18" fill="#efece6"/><rect x="61" y="21" width="18" height="18" fill="#efece6"/><rect x="81" y="21" width="18" height="18" fill="#efece6"/><rect x="101" y="21" width="18" height="18" fill="#efece6"/><rect x="121" y="21" width="18" height="18" fill="#efece6"/><rect x="1" y="41" width="18" height="18" fill="#efece6"/><rect x="21" y="41" width="18" height="18" fill="#efece6"/><rect x="41" y="41" width="18" height="18" fill="#efece6"/><rect x="61" y="41" width="18" height="18" fill="#efece6"/><rect x="81" y="41" width="18" height="18" fill="#efece6"/><rect x="101" y="41" width="18" height="18" fill="#efece6"/><rect x="1" y="61" width="18" height="18" fill="#efece6"/><rect x="21" y="61" width="18" height="18" fill="#efece6"/><rect x="41" y="61" width="18" height="18" fill="#efece6"/><rect x="61" y="61" width="18" height="18" fill="#efece6"/><rect x="81" y="61" width="18" height="18" fill="#efece6"/><rect x="101" y="61" width="18" height="18" fill="#efece6"/><rect x="121" y="61" width="18" height="18" fill="#efece6"/><rect x="1" y="81" width="18" height="18" fill="#efece6"/><rect x="21" y="81" width="18" height="18" fill="#efece6"/><rect x="41" y="81" width="18" height="18" fill="#efece6"/><rect x="61" y="81" width="18" height="18" fill="#efece6"/><rect x="81" y="81" width="18" height="18" fill="#efece6"/><rect x="101" y="81" width="18" height="18" fill="#efece6"/><rect x="1" y="101" width="18" height="18" fill="#efece6"/><rect x="21" y="101" width="18" height="18" fill="#efece6"/><rect x="41" y="101" width="18" height="18" fill="#efece6"/><rect x="61" y="101" width="18" height="18" fill="#efece6"/><rect x="81" y="101" width="18" height="18" fill="#efece6"/><rect x="101" y="101" width="18" height="18" fill="#efece6"/><rect x="121" y="101" width="18" height="18" fill="#efece6"/><rect x="141" y="101" width="18" height="18" fill="#efece6"/><rect x="1" y="121" width="18" height="18" fill="#efece6"/><rect x="21" y="121" width="18" height="18" fill="#efece6"/><rect x="41" y="121" width="18" height="18" fill="#efece6"/><rect x="61" y="121" width="18" height="18" fill="#efece6"/><rect x="81" y="121" width="18" height="18" fill="#efece6"/><rect x="101" y="121" width="18" height="18" fill="#efece6"/><rect x="1" y="141" width="18" height="18" fill="#efece6"/><rect x="21" y="141" width="18" height="18" fill="#efece6"/><rect x="41" y="141" width="18" height="18" fill="#efece6"/><rect x="61" y="141" width="18" height="18" fill="#efece6"/><rect x="81" y="141" width="18" height="18" fill="#efece6"/><rect x="101" y="141" width="18" height="18" fill="#efece6"/><rect x="121" y="141" width="18" height="18" fill="#efece6"/><rect x="141" y="141" width="18" height="18" fill="#efece6"/><rect x="161" y="141" width="18" height="18" fill="#efece6"/><rect x="1" y="161" width="18" height="18" fill="#efece6"/><rect x="21" y="161" width="18" height="18" fill="#efece6"/><rect x="41" y="161" width="18" height="18" fill="#efece6"/><rect x="61" y="161" width="18" height="18" fill="#efece6"/><rect x="81" y="161" width="18" height="18" fill="#efece6"/><rect x="1" y="181" width="18" height="18" fill="#efece6"/><rect x="21" y="181" width="18" height="18" fill="#efece6"/><rect x="41" y="181" width="18" height="18" fill="#efece6"/><rect x="61" y="181" width="18" height="18" fill="#efece6"/><rect x="81" y="181" width="18" height="18" fill="#efece6"/><rect x="101" y="181" width="18" height="18" fill="#efece6"/><rect x="121" y="181" width="18" height="18" fill="#efece6"/><rect x="141" y="181" width="18" height="18" fill="#efece6"/><rect x="161" y="1" width="18" height="18" fill="#efece6" opacity="0"><animate attributeName="opacity" values="0;0;1;1;0" keyTimes="0;0.25;0.4;0.65;0.8" dur="2.4s" begin="1.6s" repeatCount="indefinite"/></rect><rect x="141" y="21" width="18" height="18" fill="#efece6" opacity="0"><animate attributeName="opacity" values="0;0;1;1;0" keyTimes="0;0.25;0.4;0.65;0.8" dur="2.4s" begin="1.2s" repeatCount="indefinite"/></rect><rect x="161" y="61" width="18" height="18" fill="#efece6" opacity="0"><animate attributeName="opacity" values="0;0;1;1;0" keyTimes="0;0.25;0.4;0.65;0.8" dur="2.4s" begin="0.2s" repeatCount="indefinite"/></rect><rect x="181" y="101" width="18" height="18" fill="#efece6" opacity="0"><animate attributeName="opacity" values="0;0;1;1;0" keyTimes="0;0.25;0.4;0.65;0.8" dur="2.4s" begin="0.6s" repeatCount="indefinite"/></rect><rect x="161" y="121" width="18" height="18" fill="#efece6" opacity="0"><animate attributeName="opacity" values="0;0;1;1;0" keyTimes="0;0.25;0.4;0.65;0.8" dur="2.4s" begin="1.0s" repeatCount="indefinite"/></rect><rect x="181" y="141" width="18" height="18" fill="#efece6" opacity="0"><animate attributeName="opacity" values="0;0;1;1;0" keyTimes="0;0.25;0.4;0.65;0.8" dur="2.4s" begin="1.4s" repeatCount="indefinite"/></rect><rect x="101" y="161" width="18" height="18" fill="#efece6" opacity="0"><animate attributeName="opacity" values="0;0;1;1;0" keyTimes="0;0.25;0.4;0.65;0.8" dur="2.4s" begin="0.4s" repeatCount="indefinite"/></rect><rect x="161" y="181" width="18" height="18" fill="#efece6" opacity="0"><animate attributeName="opacity" values="0;0;1;1;0" keyTimes="0;0.25;0.4;0.65;0.8" dur="2.4s" begin="2.0s" repeatCount="indefinite"/></rect></svg>
